PathFileType	4	(X/Y/Z) abd_0kg_2.trc																										
DataRate	CameraRate	NumFrames	NumMarkers	Units	OrigDataRate	OrigDataStartFrame	OrigNumFrames																					
100	100	53	9	mm	100	635	846																					
Frame#	Time	gu			centelbow			EpL			centpxt8			centijc7			ij			ts			aa			ai		
		X1	Y1	Z1	X2	Y2	Z2	X3	Y3	Z3	X4	Y4	Z4	X5	Y5	Z5	X6	Y6	Z6	X7	Y7	Z7	X8	Y8	Z8	X9	Y9	Z9  
634	6.34	-114.814	13.908	159.583	-114.728	-231.19	189.77	-117.709	-223.334	220.896	-46.816	-153.158	-8.669	-46.816	31.938	-8.669	0	0	0	-126.584	29.147	27.21	-148.143	46.005	143.295	-132.064	-82.361	47.74
635	6.35	-115.007	13.856	159.62	-115.024	-231.26	189.664	-117.915	-223.42	220.802	-46.816	-153.158	-8.669	-46.816	31.938	-8.669	0	0	0	-126.625	29.208	27.346	-148.044	46.06	143.458	-132.191	-82.3	47.857
636	6.36	-115.136	13.854	159.688	-115.259	-231.281	189.572	-118.079	-223.46	220.722	-46.816	-153.158	-8.669	-46.816	31.938	-8.669	0	0	0	-126.709	29.307	27.513	-147.955	46.15	143.658	-132.369	-82.2	47.999
637	6.37	-115.23	13.946	159.722	-115.433	-231.202	189.503	-118.197	-223.392	220.661	-46.816	-153.158	-8.669	-46.816	31.938	-8.669	0	0	0	-126.887	29.604	27.477	-147.895	46.453	143.664	-132.628	-81.9	47.958
638	6.38	-115.274	14.062	159.679	-115.545	-231.086	189.454	-118.257	-223.276	220.616	-46.816	-153.158	-8.669	-46.816	31.938	-8.669	0	0	0	-127.153	29.986	27.224	-147.864	46.876	143.459	-132.974	-81.509	47.736
639	6.39	-115.159	14.112	159.661	-115.511	-231.027	189.511	-118.169	-223.206	220.675	-46.816	-153.158	-8.669	-46.816	31.938	-8.669	0	0	0	-127.385	30.189	27.007	-147.793	47.147	143.285	-133.317	-81.29	47.569
640	6.4	-114.848	14.088	159.785	-115.306	-231.034	189.773	-117.891	-223.194	220.939	-46.816	-153.158	-8.669	-46.816	31.938	-8.669	0	0	0	-127.477	30.063	27.025	-147.63	47.076	143.34	-133.557	-81.403	47.62
641	6.41	-114.422	14.11	159.999	-114.984	-230.985	190.209	-117.461	-223.114	221.376	-46.816	-153.158	-8.669	-46.816	31.938	-8.669	0	0	0	-127.446	29.676	27.199	-147.403	46.715	143.544	-133.685	-81.781	47.795
642	6.42	-114.071	14.314	160.125	-114.686	-230.741	190.655	-117.012	-222.828	221.822	-46.816	-153.158	-8.669	-46.816	31.938	-8.669	0	0	0	-127.403	29.313	27.293	-147.204	46.373	143.661	-133.766	-82.136	47.891
643	6.43	-113.924	14.616	160.06	-114.551	-230.39	190.975	-116.699	-222.427	222.143	-46.816	-153.158	-8.669	-46.816	31.938	-8.669	0	0	0	-127.482	29.201	27.215	-147.146	46.309	143.6	-133.898	-82.238	47.852
644	6.44	-113.899	14.749	159.863	-114.571	-230.209	191.157	-116.55	-222.197	222.323	-46.816	-153.158	-8.669	-46.816	31.938	-8.669	0	0	0	-127.713	29.269	27.09	-147.259	46.442	143.486	-134.124	-82.158	47.794
645	6.45	-113.919	14.608	159.654	-114.685	-230.31	191.258	-116.538	-222.257	222.421	-46.816	-153.158	-8.669	-46.816	31.938	-8.669	0	0	0	-127.992	29.331	27.039	-147.449	46.55	143.443	-134.382	-82.087	47.793
646	6.46	-113.999	14.376	159.525	-114.848	-230.514	191.343	-116.627	-222.432	222.503	-46.816	-153.158	-8.669	-46.816	31.938	-8.669	0	0	0	-128.164	29.327	27.046	-147.559	46.553	143.459	-134.542	-82.09	47.81
647	6.47	-114.097	14.222	159.438	-114.995	-230.651	191.391	-116.734	-222.551	222.549	-46.816	-153.158	-8.669	-46.816	31.938	-8.669	0	0	0	-128.15	29.309	27.023	-147.493	46.518	143.447	-134.526	-82.111	47.773
648	6.48	-114.161	14.092	159.312	-115.102	-230.769	191.349	-116.814	-222.659	222.506	-46.816	-153.158	-8.669	-46.816	31.938	-8.669	0	0	0	-128.027	29.28	26.913	-147.309	46.47	143.35	-134.412	-82.143	47.644
649	6.49	-114.169	13.946	159.211	-115.132	-230.907	191.31	-116.83	-222.788	222.465	-46.816	-153.158	-8.669	-46.816	31.938	-8.669	0	0	0	-127.92	29.16	26.814	-147.148	46.326	143.264	-134.326	-82.266	47.52
650	6.5	-114.093	13.881	159.248	-115.012	-230.963	191.413	-116.706	-222.837	222.566	-46.816	-153.158	-8.669	-46.816	31.938	-8.669	0	0	0	-127.874	28.941	26.886	-147.079	46.071	143.345	-134.295	-82.491	47.555
651	6.51	-113.958	13.883	159.394	-114.802	-230.951	191.64	-116.498	-222.815	222.79	-46.816	-153.158	-8.669	-46.816	31.938	-8.669	0	0	0	-127.874	28.724	27.063	-147.08	45.813	143.527	-134.288	-82.716	47.694
652	6.52	-113.819	13.833	159.51	-114.636	-230.989	191.848	-116.332	-222.842	222.995	-46.816	-153.158	-8.669	-46.816	31.938	-8.669	0	0	0	-127.843	28.601	27.138	-147.053	45.659	143.606	-134.236	-82.845	47.742
653	6.53	-113.719	13.737	159.524	-114.55	-231.07	191.975	-116.246	-222.908	223.119	-46.816	-153.158	-8.669	-46.816	31.938	-8.669	0	0	0	-127.716	28.611	27.092	-146.924	45.644	143.564	-134.082	-82.84	47.678
654	6.54	-113.719	13.653	159.507	-114.546	-231.135	192.105	-116.239	-222.954	223.244	-46.816	-153.158	-8.669	-46.816	31.938	-8.669	0	0	0	-127.575	28.702	27.049	-146.773	45.713	143.526	-133.913	-82.754	47.619
655	6.55	-113.831	13.576	159.55	-114.617	-231.189	192.32	-116.302	-222.986	223.453	-46.816	-153.158	-8.669	-46.816	31.938	-8.669	0	0	0	-127.529	28.769	27.087	-146.709	45.759	143.57	-133.845	-82.691	47.641
656	6.56	-113.934	13.524	159.649	-114.662	-231.217	192.599	-116.336	-222.992	223.727	-46.816	-153.158	-8.669	-46.816	31.938	-8.669	0	0	0	-127.51	28.797	27.218	-146.676	45.764	143.707	-133.813	-82.667	47.753
657	6.57	-113.875	13.526	159.709	-114.555	-231.188	192.854	-116.216	-222.939	223.977	-46.816	-153.158	-8.669	-46.816	31.938	-8.669	0	0	0	-127.389	28.848	27.344	-146.542	45.794	143.838	-133.675	-82.62	47.861
658	6.58	-113.65	13.544	159.628	-114.297	-231.14	192.998	-115.941	-222.862	224.114	-46.816	-153.158	-8.669	-46.816	31.938	-8.669	0	0	0	-127.219	28.924	27.314	-146.341	45.851	143.816	-133.48	-82.548	47.818
659	6.59	-113.418	13.514	159.412	-114.036	-231.136	193.032	-115.66	-222.826	224.14	-46.816	-153.158	-8.669	-46.816	31.938	-8.669	0	0	0	-127.183	28.966	27.138	-146.258	45.876	143.65	-133.425	-82.509	47.63
660	6.6	-113.335	13.437	159.166	-113.926	-231.179	193.039	-115.531	-222.837	224.139	-46.816	-153.158	-8.669	-46.816	31.938	-8.669	0	0	0	-127.347	28.975	26.99	-146.381	45.867	143.511	-133.59	-82.503	47.467
661	6.61	-113.422	13.402	159.035	-114.003	-231.181	193.14	-115.591	-222.81	224.234	-46.816	-153.158	-8.669	-46.816	31.938	-8.669	0	0	0	-127.599	29.021	26.982	-146.605	45.895	143.51	-133.853	-82.46	47.44
662	6.62	-113.541	13.499	159.127	-114.132	-231.054	193.446	-115.708	-222.655	224.533	-46.816	-153.158	-8.669	-46.816	31.938	-8.669	0	0	0	-127.738	29.122	27.063	-146.711	45.98	143.599	-134.015	-82.361	47.502
663	6.63	-113.539	13.659	159.348	-114.195	-230.863	193.886	-115.76	-222.436	224.966	-46.816	-153.158	-8.669	-46.816	31.938	-8.669	0	0	0	-127.66	29.211	27.124	-146.576	46.054	143.671	-133.987	-82.273	47.541
664	6.64	-113.471	13.689	159.474	-114.314	-230.8	194.24	-115.861	-222.343	225.312	-46.816	-153.158	-8.669	-46.816	31.938	-8.669	0	0	0	-127.523	29.24	27.117	-146.363	46.066	143.679	-133.941	-82.244	47.505
665	6.65	-113.512	13.542	159.424	-114.697	-230.916	194.401	-116.219	-222.429	225.467	-46.816	-153.158	-8.669	-46.816	31.938	-8.669	0	0	0	-127.595	29.202	27.106	-146.352	46.012	143.683	-134.148	-82.281	47.459
666	6.66	-113.637	13.349	159.308	-115.272	-231.082	194.451	-116.769	-222.572	225.512	-46.816	-153.158	-8.669	-46.816	31.938	-8.669	0	0	0	-127.853	29.111	27.163	-146.524	45.906	143.757	-134.578	-82.369	47.477
667	6.67	-113.68	13.193	159.253	-115.801	-231.217	194.519	-117.281	-222.688	225.575	-46.816	-153.158	-8.669	-46.816	31.938	-8.669	0	0	0	-128.004	29.037	27.226	-146.575	45.807	143.839	-134.902	-82.441	47.49
668	6.68	-113.703	13.148	159.236	-116.257	-231.242	194.613	-117.731	-222.696	225.665	-46.816	-153.158	-8.669	-46.816	31.938	-8.669	0	0	0	-127.984	29.123	27.158	-146.44	45.854	143.795	-135.016	-82.357	47.366
669	6.69	-113.907	13.365	159.143	-116.743	-231.004	194.639	-118.216	-222.442	225.686	-46.816	-153.158	-8.669	-46.816	31.938	-8.669	0	0	0	-128.024	29.433	26.942	-146.37	46.127	143.603	-135.142	-82.05	47.104
670	6.7	-114.22	13.801	158.981	-117.21	-230.548	194.6	-118.687	-221.969	225.643	-46.816	-153.158	-8.669	-46.816	31.938	-8.669	0	0	0	-128.184	29.806	26.701	-146.45	46.485	143.375	-135.362	-81.677	46.842
671	6.71	-114.386	14.124	158.885	-117.574	-230.206	194.615	-119.055	-221.612	225.653	-46.816	-153.158	-8.669	-46.816	31.938	-8.669	0	0	0	-128.277	29.99	26.549	-146.502	46.681	143.228	-135.523	-81.488	46.692
672	6.72	-114.373	14.111	158.916	-117.905	-230.203	194.726	-119.389	-221.597	225.761	-46.816	-153.158	-8.669	-46.816	31.938	-8.669	0	0	0	-128.261	29.89	26.523	-146.473	46.6	143.202	-135.604	-81.581	46.669
673	6.73	-114.376	13.909	158.985	-118.321	-230.391	194.846	-119.809	-221.776	225.878	-46.816	-153.158	-8.669	-46.816	31.938	-8.669	0	0	0	-128.314	29.642	26.608	-146.538	46.353	143.284	-135.785	-81.825	46.734
674	6.74	-114.493	13.749	159.038	-118.825	-230.539	194.936	-120.319	-221.916	225.966	-46.816	-153.158	-8.669	-46.816	31.938	-8.669	0	0	0	-128.494	29.442	26.779	-146.736	46.13	143.456	-136.108	-82.023	46.859
675	6.75	-114.626	13.646	159.172	-119.341	-230.631	195.097	-120.84	-222.002	226.125	-46.816	-153.158	-8.669	-46.816	31.938	-8.669	0	0	0	-128.612	29.334	26.989	-146.852	45.992	143.671	-136.376	-82.13	47.016
676	6.76	-114.676	13.556	159.347	-119.823	-230.711	195.285	-121.324	-222.078	226.311	-46.816	-153.158	-8.669	-46.816	31.938	-8.669	0	0	0	-128.578	29.287	27.132	-146.767	45.922	143.825	-136.493	-82.174	47.114
677	6.77	-114.645	13.533	159.331	-120.297	-230.724	195.262	-121.786	-222.088	226.288	-46.816	-153.158	-8.669	-46.816	31.938	-8.669	0	0	0	-128.53	29.368	27.106	-146.607	45.979	143.819	-136.596	-82.09	47.045
678	6.78	-114.555	13.594	159.11	-120.801	-230.655	194.995	-122.261	-222.022	226.023	-46.816	-153.158	-8.669	-46.816	31.938	-8.669	0	0	0	-128.565	29.635	26.961	-146.454	46.193	143.712	-136.789	-81.824	46.833
679	6.79	-114.424	13.638	158.98	-121.379	-230.608	194.755	-122.8	-221.985	225.788	-46.816	-153.158	-8.669	-46.816	31.938	-8.669	0	0	0	-128.646	29.928	26.961	-146.285	46.381	143.764	-137.079	-81.537	46.71
680	6.8	-114.324	13.537	159.151	-122.102	-230.71	194.748	-123.483	-222.105	225.787	-46.816	-153.158	-8.669	-46.816	31.938	-8.669	0	0	0	-128.757	29.965	27.298	-146.127	46.264	144.163	-137.484	-81.509	46.867
681	6.81	-114.287	13.325	159.403	-122.921	-230.922	194.806	-124.263	-222.337	225.853	-46.816	-153.158	-8.669	-46.816	31.938	-8.669	0	0	0	-128.908	29.796	27.711	-146.003	45.928	144.639	-137.975	-81.686	47.082
682	6.82	-114.224	13.208	159.301	-123.615	-231.03	194.568	-124.906	-222.459	225.621	-46.816	-153.158	-8.669	-46.816	31.938	-8.669	0	0	0	-129.082	29.818	27.714	-145.859	45.805	144.709	-138.436	-81.669	46.92
683	6.83	-114.098	13.143	158.802	-124.169	-231.076	194.014	-125.392	-222.51	225.072	-46.816	-153.158	-8.669	-46.816	31.938	-8.669	0	0	0	-129.266	30.071	27.301	-145.695	45.943	144.361	-138.845	-81.417	46.384
684	6.84	-114.083	12.805	158.347	-124.896	-231.384	193.551	-126.051	-222.816	224.611	-46.816	-153.158	-8.669	-46.816	31.938	-8.669	0	0	0	-129.475	30.13	27.014	-145.603	45.9	144.13	-139.292	-81.358	45.983
685	6.85	-114.247	12.228	158.246	-125.821	-231.926	193.446	-126.921	-223.357	224.507	-46.816	-153.158	-8.669	-46.816	31.938	-8.669	0	0	0	-129.682	29.881	27.19	-145.601	45.544	144.348	-139.761	-81.605	46.032
686	6.86	-114.359	11.849	158.318	-126.516	-232.278	193.514	-127.573	-223.707	224.576	-46.816	-153.158	-8.669	-46.816	31.938	-8.669	0	0	0	-129.841	29.697	27.539	-145.597	45.258	144.732	-140.13	-81.789	46.263
